<svg xmlns="http://www.w3.org/2000/svg" width="256" height="256" fill="none" viewBox="0 0 256 256">
<!-- SVG created with Arrow, by QuiverAI (https://quiver.ai) -->
  <path d="m255.8 127.9c0 70.74-57.09 128.1-135.9 127.8-71.57-0.26-120-55.88-119.9-127.7 0.11-70.28 50.39-127.4 119-126.9 76.69 0.51 136.8 57.99 136.8 126.8z" fill="#FEFFFE"/>
  <path d="m111.4 255.9c-56.94 0-111.3-48.95-111.3-92.27l0.01 13.33c0 30.83 45.9 79.05 106.4 79.05 67.23 0 94.41-29.26 112.9-50.25l10.06-14.44c-19.46 25.63-55.67 64.58-118 64.58z" fill="#9DB5CA" opacity=".1"/>
  <path d="m0.11 39.84-0.1-8.02c14.07-18.73 35.9-33.03 52.02-31.78-20.67 6.08-40.02 21.88-51.92 39.8z" fill="#9DB5CA" opacity=".1"/>
  <path d="m166.4 15.67c-17.45-9.66-35.98-12.65-55.24-12.65-40.23 0-71.06 14.3-92.05 34.07l-4.8 5.74c22.54-24.1 52.32-37.85 88.82-37.85 21.72 0 43.95 4.06 63.27 10.69z" fill="#9DB5CA" opacity=".1"/>
  <path d="m221.9 30.18c20.99 22.54 34.01 52.74 34.01 83.78l-0.26-13.44c-3.85-23.68-15.96-45.91-33.75-70.34z" fill="#9DB5CA" opacity=".1"/>
  <path d="m110.1 236.8c-58.45 0-106-47.82-106-107.3 0-56.73 49.16-105.5 104-105.5 59.51 0 129.6 54.11 129.6 105.7 0 57.91-51.69 107.1-127.6 107.1zm-2.46-207.7c-50.92 0-97.53 46.29-97.53 99.79 0 55.7 44.87 102 99.68 102 71.87 0 121.5-46.82 121.5-102.3 0-48.34-65.08-99.53-123.7-99.53z" fill="#9DB5CA" opacity=".1"/>
  <path d="m109.1 222.2c-46.3 0-87.7-42.45-87.7-92.36 0-45.79 35.27-70.74 71.5-71.79 51.7-1.54 104 41.07 104 73.05 0 47-36.71 91.1-87.82 91.1zm-14.87-158.9c-33.43 0.95-67.02 23.08-67.02 65.69 0 46.75 38.59 87.2 81.53 87.2 47.56 0 82.26-41.02 82.26-84.38 0-29.42-48.9-69.94-96.77-68.51z" fill="#9DB5CA" opacity=".1"/>
  <path d="m108.8 200c-35.54 0-64.69-31.09-64.69-59.02 0-27.94 15.8-60.23 54.15-63.22l2.11-0.16c33.74-1.59 69.64 29.29 72.63 54.09 3.69 30.47-24.24 68.31-64.2 68.31zm-8.02-117.1c-35.54 2.32-50.66 30.2-50.66 57 0 25.37 26.75 54.34 59.04 54.34 37.07 0 62.28-34.45 58.92-61.55-2.84-22.72-35.65-51.38-67.3-49.79z" fill="#9DB5CA" opacity=".1"/>
  <path d="m110.1 17.11c-14.8 0-26.83 22.43-33.4 53.83-14.3-4.53-27.48-6.58-38.15-6.06-16.37 0.84-25.55 6.27-25.55 17.83 0 13.13 8.66 26.2 23.87 43.02l5.63 5.9-5.63 6.42c-14.35 17.08-23.87 29.79-23.87 43.17 0 11.04 9.52 17.05 25.91 17.05 10.06 0 21.89-2.21 37-6.99 7.92 28.51 19.9 50.43 33.83 50.43 14.59 0 26.37-20.22 33.98-50.48 13.18 4.52 25.31 6.78 35.26 6.78 16.39 0 26.39-6.47 26.39-16.37 0-12.65-9.48-27-29.26-49.86l6.01-6.73c14.95-17.34 23.61-31.43 23.61-41.82 0-6.88-3.73-12.08-10.51-15.02l-5.3 7.82c5.4 1.91 7.15 4.9 7.15 9.37 0 9.28-9.9 22.67-25.96 41.12l-16.7-15.27-11.61 2.84 1.44 5.96 3.09-3.31 18.51 14.16-17.46 15.32 0.52-30.16-6.47-1 0.88 35.06-33.21 20.99-33.25-20.99 0.32-38.2c9.95-7.25 19.9-13.36 31.46-17.93v-8.49c-9.52-3.75-18.13-7.06-25.42-9.52 6.88-27.47 16.83-49.03 26.89-49.03 7.51 0 14.18 9.07 19.99 21.67l5.81-6.78c-7.4-14.79-15.06-24.73-25.8-24.73zm-70.03 55.28c9.52-0.37 21.03 1.9 34.68 5.95-2.21 10.39-3.64 20.58-4.69 29.7-8.12 6.17-15.25 12.28-21.77 18.44-15.86-16.97-27.15-31.37-27.15-41.81 0-8.07 6.22-11.76 18.93-12.28zm130.9 64.12c16.73 18.56 25.7 32.8 25.7 42.7 0 7.3-7.3 11.04-20.03 11.04-9.95 0-20.94-2.42-32.45-5.84 2.16-9.32 3.7-18.8 4.57-29.65l22.21-18.25zm-123.1 0.21 22.86 17.99c0.82 9.52 2.11 19.42 4.02 29.81-11.83 3.9-22.78 5.44-32.68 5.44-13.38 0-20.67-4.27-20.67-11.18 0-10.33 9.57-23.66 26.47-42.06zm29.66 23.09 25.62 14.9c-7.5 3.7-13.97 6.3-21.1 8.91l-4.52-23.81zm64.53-0.46-4.21 24.33c-7.76-2.99-13.03-5.21-20.43-8.96l24.64-15.37zm-32.47 18.91c9.52 4.84 16.97 7.99 26.1 11.03-7.13 26.7-16.65 43.62-26.12 43.62-10.84 0-20.9-17.28-27.22-43.67 8.71-3.2 17.07-6.51 27.24-10.98zm-27.9-97.74c7.4 2.76 13.21 5.41 20.97 8.83-9.02 4.17-15.7 8.06-24.66 14.54l3.69-23.37z" fill="url(#paint0_radial_2017_2115)" opacity=".25"/>
  <path d="m198.1 68.89c5.05 2.36 6.64 7.72 6.64 14.03 0 12.13-11.56 28.23-30.88 48.71 18.09 20.03 30.01 35.55 30.01 50.16 0 10.53-10.9 14.9-26.32 14.9-12.34 0-24.06-3.1-34.7-6.73-7.3 27.78-17.73 50.37-33.16 50.37-13.93 0-24.93-20.02-33.2-50.22-13.18 4.79-26.16 6.74-37.16 6.74-14.4 0-24.99-4.58-24.99-16.1 0-13.13 10.43-28.08 28.88-50.06-17.14-18.77-29.47-33.77-29.47-48.62 0-10.95 8.66-16.45 24.03-16.45 11.55 0 24.37 2.56 39.07 6.61 7.13-29.92 17.92-53.81 33.3-53.81 9.95 0 17.71 11.71 23.88 25.68l-4.8 4.52c-6.06-13.28-12.58-22.41-19.54-22.41-11.72 0-22.46 22.41-27.14 47.51 9.95 3.59 17.13 6.59 26.3 11.11l-0.58 7.82c-11.88 5.1-20.38 10.96-30.81 18.96-1.19 11.51-1.4 23.23-0.77 38.13 9.42 7.3 20.7 15.32 33 21.37 11.51-6.46 22.46-14.02 33.1-21.68 1.04-12.18 1.04-22.28 0-33.37l10.16-2.6 17.8 14.4c15.42-16.72 26.57-31.61 26.57-42.72 0-5.09-2.05-7.98-5.74-9.73l6.52-6.52zm-158.2 2.21c-13.78 0.56-19.41 5.35-19.41 13.52 0 11.51 10.64 26.16 27.78 42.47 7.92-7.76 14.59-13.2 22.25-19.26 1.28-10.84 2.77-20.12 4.73-30.12-12.34-3.94-24.42-7.03-35.35-6.61zm130.9 63.87c-8.5 8.02-14.26 12.8-22.67 19.07-1.33 11.25-2.92 21.05-4.87 30.27 10.94 3.85 21.58 6.01 32.95 6.01 13.83 0 21.12-4.53 21.12-12.09 0-11.51-9.95-26.05-26.53-43.26zm-122.8 0.05c-16.32 18.14-26.75 32.39-26.75 44.27 0 8.02 8.02 11.82 20.84 11.82 11.51 0 22.8-2.43 33.33-5.9-1.95-10.23-2.96-18.85-4.2-30.82-9.09-6.57-16.17-12.68-23.22-19.37zm29.61 23.04 4.11 25.25c8.5-2.99 15.64-6.19 22.77-9.23l-26.88-16.02zm65.27 0.62-25.63 15.22c8.17 3.84 12.97 5.85 20.83 8.79l4.8-24.01zm-33.16 19.01c-10.94 5.36-17.41 8.25-26.53 11.45 6.22 25.68 15.39 43.24 26.43 43.24 10.94 0 21.58-18.66 27.8-43.45-9.52-3.64-17.23-6.89-27.7-11.24z" fill="url(#paint1_linear_2017_2115)"/>
  <path d="m109.1 109.1c13.93 0 25.2 12.02 25.2 25.94 0 14.4-11.56 24.79-25.97 24.79-13.49 0-23.44-11.88-23.44-25.32s10.77-25.41 24.21-25.41z" fill="url(#paint2_radial_2017_2115)"/>
  <path d="m248.3 11.29c-30.28-6.27-59.2-2.91-82.1 10.63-8.27 4.84-13.02 24.87-13.02 24.87-0.88-6.88 1.73-15.15 2.56-18.25-11.51 7.92-23.54 18.61-26.93 27.42-4.63 12.35-2.07 22.48-2.07 22.48-2.84-5.15-1.41-14.43-1.04-18.43-8.36 12.8-12.58 26.87-10.42 39.23 1.1 6.27 1.72 8.17-0.23 8.17-2.94 0-3.98 2.61-2.14 5.32 0.83 1.25-9.7 10.38-16.17 12.33 1 9.52 1.05 13.63-1.5 22.45l1.09 4.62 4.47 1.59c4.21-6.52 11.82-10.47 19.68-13.51-0.88-7.3 1.39-17.4 3.55-20.16 3.89 1.2 5.04-1.79 2.98-4.94-1.29-2.16 1.91-2.73 6.23-3.19 14.6-1.59 25.6-6.89 37.57-16.73-9.18 2.89-14.13 1.96-23.31 0.27 10.22-0.73 25.38-5.68 31.24-10.27 7.4-5.86 16.42-20.97 22.59-32.16-8.41 4.11-14.11 3.59-20.22 2.4 11.51-2.41 19.91-6.52 24.43-8.79 11.51-19.53 27.89-31.61 42.76-35.35z" fill="url(#paint3_linear_2017_2115)"/>
  <path d="m101 153.4-3.7-1.49 9.9-16.91 2.87 1.55-9.07 16.85z" fill="#422918"/>
  <path d="m108.6 128.8c3.1 0 3.97 2.36 3.97 3.96 0 2.41-1.89 4.21-3.97 4.21-2.55 0-3.6-2.11-3.6-4.11 0-2.37 1.69-4.06 3.6-4.06z" fill="url(#paint4_linear_2017_2115)"/>
  <path d="m95.82 148.4c4.28 0 5.87 3.26 5.87 5.42 0 3.42-2.61 5.42-5.36 5.42-3.2 0-5.21-2.46-5.21-5.06 0-3.15 2.32-5.78 4.7-5.78z" fill="url(#paint5_linear_2017_2115)"/>
  <path d="m95.82 150.7c2.37 0 3.04 1.75 3.04 2.9 0 1.75-1.38 2.9-2.89 2.9-2 0-2.95-1.59-2.95-2.95 0-1.69 1.33-2.85 2.8-2.85z" fill="#F0A836"/>
  <path d="m208.2 20.12c-37.34 16.66-65.34 49.65-98.5 109.1l2.06 1.2c27.44-48.14 54.14-92.43 96.44-110.3z" fill="url(#paint6_linear_2017_2115)"/>
  <defs>
    <radialGradient id="paint0_radial_2017_2115" cx="0" cy="0" r="1" gradientTransform="translate(110.1 129.4) scale(127.9 127.8)" gradientUnits="userSpaceOnUse">
      <stop stop-color="#3FFFF8" offset="0"/>
      <stop stop-color="#3FFFF9" stop-opacity=".749" offset=".2101"/>
      <stop stop-color="#3FFFFB" stop-opacity=".3855" offset=".5092"/>
      <stop stop-color="#3FFFFC" stop-opacity=".1141" offset=".7414"/>
      <stop stop-color="#3FFFFD" stop-opacity=".01" offset=".8773"/>
      <stop stop-color="#3FFFFE" stop-opacity="0" offset="1"/>
    </radialGradient>
    <linearGradient id="paint1_linear_2017_2115" x1="38.24" x2="178.8" y1="49.06" y2="202.9" gradientUnits="userSpaceOnUse">
      <stop stop-color="#00D0DA" offset="0"/>
      <stop stop-color="#01BFC7" offset=".1011"/>
      <stop stop-color="#04939A" offset=".3091"/>
      <stop stop-color="#094D54" offset=".6094"/>
      <stop stop-color="#0B3136" offset=".7135"/>
      <stop stop-color="#104949" offset=".8021"/>
      <stop stop-color="#1E817A" offset=".9964"/>
      <stop stop-color="#1E827B" offset="1"/>
    </linearGradient>
    <radialGradient id="paint2_radial_2017_2115" cx="0" cy="0" r="1" gradientTransform="translate(109.6 134.4) scale(24.2 24.19)" gradientUnits="userSpaceOnUse">
      <stop stop-color="#F0A836" offset="0"/>
      <stop stop-color="#F1AE3F" stop-opacity=".8291" offset=".1709"/>
      <stop stop-color="#F5BF58" stop-opacity=".5459" offset=".4541"/>
      <stop stop-color="#FBD684" stop-opacity=".1756" offset=".8244"/>
      <stop stop-color="#FFE69D" stop-opacity="0" offset="1"/>
    </radialGradient>
    <linearGradient id="paint3_linear_2017_2115" x1="154.5" x2="180.7" y1="12.36" y2="92.74" gradientUnits="userSpaceOnUse">
      <stop stop-color="#1E577A" offset="0"/>
      <stop stop-color="#09143B" offset="1"/>
    </linearGradient>
    <linearGradient id="paint4_linear_2017_2115" x1="106.1" x2="110.8" y1="129.4" y2="136.6" gradientUnits="userSpaceOnUse">
      <stop stop-color="#F0C955" offset="0"/>
      <stop stop-color="#D28429" offset="1"/>
    </linearGradient>
    <linearGradient id="paint5_linear_2017_2115" x1="93.42" x2="99.9" y1="149.8" y2="157.4" gradientUnits="userSpaceOnUse">
      <stop stop-color="#F0C955" offset="0"/>
      <stop stop-color="#D28429" offset="1"/>
    </linearGradient>
    <linearGradient id="paint6_linear_2017_2115" x1="120.2" x2="204.1" y1="127.1" y2="22.24" gradientUnits="userSpaceOnUse">
      <stop stop-color="#1E577A" offset="0"/>
      <stop stop-color="#00D0DA" offset="1"/>
    </linearGradient>
  </defs>
</svg>