<svg width="266" height="266" viewBox="0 0 266 266" fill="none" xmlns="http://www.w3.org/2000/svg">
<g clip-path="url(#clip0_3765_35257)">
<g clip-path="url(#clip1_3765_35257)">
<rect x="-130" width="1240" height="629" fill="#36A8FF"/>
<path d="M94.7812 15.3607C91.6344 13.2809 84.8307 13.0817 84.2461 22.173C83.6615 31.2643 85.3034 49.447 90.2786 61.4526C95.2539 73.4581 106.013 82.3253 107.854 89.6731C108.961 94.2312 107.219 103.285 103.202 110.969C99.1968 118.653 96.1619 126.001 99.4828 134.258C102.07 140.983 104.981 142.067 104.981 142.067C98.351 150.697 94.2215 160.536 92.9155 172.653C92.1319 180.213 87.6666 182.666 83.7113 189.105C77.828 198.533 76.4349 213.801 87.281 229.468C79.7062 231.087 77.4922 236.48 77.4922 240.988C77.4922 244.849 80.7261 247.339 86.1243 247.215C91.5224 247.09 105.677 246.605 105.677 246.605C105.677 246.605 104.981 251.96 115.702 251.96C126.424 251.96 128.762 249.058 129.994 243.603L136.088 243.852C136.088 247.464 138.576 251.96 150.504 251.723C159.522 251.524 161.425 249.332 161.661 246.306C167.059 246.605 174.398 247.339 179.398 247.339C185.592 247.339 188.067 244.475 188.067 240.988C188.067 236.131 185.779 232.718 177.868 229.929C184.709 223.241 188.217 213.066 187.234 202.891C186.065 190.612 177.769 184.572 175.53 181.67C172.582 177.722 174.224 175.045 172.196 164.67C170.281 154.496 162.47 142.067 162.47 142.067C167.544 137.621 170.181 129.152 168.179 122.427C166.077 114.867 162.569 112.165 159.621 102.376C157.88 96.2114 157.681 93.0979 162.047 85.3142C165.753 78.7137 174.323 71.0296 178.017 56.8073C181.724 42.5849 183.963 23.9165 181.326 17.7519C179.112 12.2971 174.472 14.0157 172.147 15.3607C165.952 18.9599 147.27 38.114 141.673 55.5868C138.626 64.8898 138.141 71.2787 137.258 78.2155L128.364 78.2155C127.879 74.5043 127.68 67.6795 125.566 59.3105C120.516 39.2597 105.279 22.1232 94.7812 15.3607Z" fill="url(#paint0_linear_3765_35257)"/>
<path d="M92.5868 20.9937C88.9784 23.2158 87.9581 33.7645 91.2181 48.5077C94.7767 64.3869 104.756 74.7983 111.997 79.7668C113.08 72.5637 113.465 56.0978 109.907 46.8349C106.908 38.5957 97.3647 19.8702 92.5868 20.9937Z" fill="url(#paint1_radial_3765_35257)"/>
<path d="M174.815 19.8828C169.507 20.8679 157.243 37.0155 154.526 46.9285C151.809 56.8415 152.061 72.2285 152.703 80.3085C160.941 75.246 169.067 63.3255 172.363 52.178C175.96 40.033 179.029 21.2544 174.815 19.8828Z" fill="url(#paint2_radial_3765_35257)"/>
<path d="M107.371 141.605C102.268 147.765 94.7009 162.512 94.1159 176.475C93.531 190.45 97.2398 198.912 100.824 207.685C104.682 217.467 107.632 228.592 107.831 236.42C104.882 239.12 104.633 243.351 105.218 245.765C107.246 246.885 108.615 247.719 114.963 247.719C122.356 247.719 126.849 246.151 127.533 241.373C128.516 234.341 126.849 221.013 127.633 211.133C127.969 206.603 129.325 204.885 132.063 204.885C134.553 204.885 135.922 207.586 135.922 213.236C135.922 220.167 134.254 236.133 134.938 242.866C135.424 247.769 139.282 248.752 148.032 248.752C155.424 248.752 158.324 247.719 159.656 245.417C160.141 241.472 158.573 238.485 156.806 236.818C158.225 223.938 162.942 211.917 167.92 199.746C171.28 191.483 173.16 184.041 171.33 171.908C169.414 158.941 162.556 143.908 159.606 140.734C154.777 143.908 143.041 148.151 132.648 148.151C122.256 148.151 111.378 144.107 107.371 141.605Z" fill="url(#paint3_radial_3765_35257)"/>
<path d="M92.8528 185.648C88.9361 188.616 83.7346 195.45 83.3853 206.948C83.0485 216.65 87.4767 225.604 91.1439 229.22C98.1542 229.22 102.171 232.725 103.381 234.845C104.478 234.408 105.451 233.934 106.337 233.647C105.85 224.768 102.333 214.318 98.965 206.499C95.5971 198.705 93.489 191.747 92.8528 185.648Z" fill="url(#paint4_radial_3765_35257)"/>
<path d="M173.065 186.188C171.539 192.591 167.314 202.715 164.426 209.65C161.878 215.955 159.331 223.557 158.688 229.985C161.021 230.183 162.017 229.8 163.203 228.898C165.599 227.637 167.756 227.538 171.779 227.637C177.984 224.386 183.004 213.248 182.714 203.989C182.31 193.716 177.29 188.697 173.065 186.188Z" fill="url(#paint5_radial_3765_35257)"/>
<path d="M85.9275 232.217C81.4745 233.323 79.6328 236.308 79.6328 240.375C79.6328 243.889 83.1775 244.467 85.8265 244.467C90.9733 244.467 100.068 243.496 104.055 243.054C104.597 239.945 103.613 237.033 102.074 235.129C98.933 232.119 92.5122 230.767 85.9275 232.217Z" fill="url(#paint6_radial_3765_35257)"/>
<path d="M167.691 231.265C164.274 232.616 162.342 235.38 161.612 239.027C161.278 240.82 161.278 242.626 161.662 244.136C167.344 244.714 172.94 245.008 177.867 245.008C183.389 245.008 185.939 243.117 185.939 240.145C185.939 236.227 184.07 233.574 179.353 231.793C175.961 230.541 171.566 230.062 167.691 231.265Z" fill="url(#paint7_radial_3765_35257)"/>
<path d="M108.619 90.7767C111.179 84.6197 120.799 78.1641 130.68 78.1641H135.105C143.482 78.1641 155.414 83.0151 157.415 92.2445C158.384 96.8716 156.644 98.4388 160.149 106.574C163.654 114.708 167.843 119.97 168.24 125.194C168.974 134.2 163.741 141.352 155.463 144.237C148.031 146.937 138.461 149.822 133.539 150.307C128.306 150.805 113.789 147.198 109.501 145.27C102.218 141.986 97.0725 134.013 97.8803 125.194C98.6136 117.37 102.578 113.726 104.94 106.909C106.941 100.927 107.14 94.16 108.619 90.7767Z" fill="url(#paint8_radial_3765_35257)"/>
<path d="M113.805 100.094C111.247 100.094 110.078 105.032 110.078 108.362C110.078 112.617 111.869 113.997 114.11 113.997C116.692 113.997 117.557 112.364 117.557 109.135C117.557 105.691 116.071 100.094 113.805 100.094Z" fill="url(#paint9_radial_3765_35257)"/>
<path d="M153.279 100.094C150.121 100.094 146.938 106.005 146.938 110.236C146.938 113.224 148.193 114.532 150.755 114.532C154.42 114.532 156.019 110.634 156.019 106.787C156.019 103.902 154.966 100.094 153.279 100.094Z" fill="url(#paint10_radial_3765_35257)"/>
<path d="M126.71 124.444C125.071 125.47 126.558 131.643 133.454 131.643C138.294 131.643 139.933 126.101 139.34 124.79C138.546 123.232 136.025 125.47 133.252 125.47C130.113 125.47 128.348 123.417 126.71 124.444Z" fill="url(#paint11_radial_3765_35257)"/>
<path d="M111.219 237.23C107.79 238.812 106.599 242.279 106.927 244.828C107.17 246.75 109.055 247.151 110.635 247.151C113.821 247.151 119.972 245.469 121.808 243.585C123.097 242.254 122.185 237.783 118.756 236.338C116.702 235.447 113.626 236.1 111.219 237.23Z" fill="url(#paint12_radial_3765_35257)"/>
<path d="M146.833 236.38C143.785 237.231 143.598 239.057 143.785 240.639C144.133 243.34 148.649 244.934 153.14 245.409C157.158 245.883 159.323 244.983 160.007 243.34C160.99 240.882 159.323 237.572 156.872 236.136C154.708 234.871 150.826 235.345 146.833 236.38Z" fill="url(#paint13_radial_3765_35257)"/>
</g>
</g>
<defs>
<linearGradient id="paint0_linear_3765_35257" x1="132.78" y1="14.3619" x2="132.78" y2="251.935" gradientUnits="userSpaceOnUse">
<stop stop-color="#B6E7FE"/>
<stop offset="0.4948" stop-color="#94BCE8"/>
<stop offset="0.8021" stop-color="#C0E7FE"/>
<stop offset="1" stop-color="#78A2D2"/>
</linearGradient>
<radialGradient id="paint1_radial_3765_35257" cx="0" cy="0" r="1" gradientTransform="matrix(20.9962 3.45528 -5.42768 33.1998 101.993 49.8809)" gradientUnits="userSpaceOnUse">
<stop stop-color="#FCA77C"/>
<stop offset="1" stop-color="#F9D0CC"/>
</radialGradient>
<radialGradient id="paint2_radial_3765_35257" cx="0" cy="0" r="1" gradientTransform="matrix(22.054 3.4486 -5.85028 36.766 163.746 49.7216)" gradientUnits="userSpaceOnUse">
<stop stop-color="#FCA77C"/>
<stop offset="1" stop-color="#F9D0CC"/>
</radialGradient>
<radialGradient id="paint3_radial_3765_35257" cx="0" cy="0" r="1" gradientUnits="userSpaceOnUse" gradientTransform="translate(133.022 188.023) scale(37.5492 54.2826)">
<stop stop-color="#FCA77C"/>
<stop offset="0.7188" stop-color="#F9D0CC" stop-opacity="0.7292"/>
<stop offset="1" stop-color="#F9D0CC" stop-opacity="0.28"/>
</radialGradient>
<radialGradient id="paint4_radial_3765_35257" cx="0" cy="0" r="1" gradientTransform="matrix(18.7454 4.93398 -7.90146 30.0042 96.2457 209.342)" gradientUnits="userSpaceOnUse">
<stop stop-color="#FCA77C"/>
<stop offset="1" stop-color="#F9D0CC" stop-opacity="0.28"/>
</radialGradient>
<radialGradient id="paint5_radial_3765_35257" cx="0" cy="0" r="1" gradientTransform="matrix(19.8775 4.46936 -7.15986 30.5921 168.525 207.697)" gradientUnits="userSpaceOnUse">
<stop stop-color="#FCA77C"/>
<stop offset="1" stop-color="#F9D0CC" stop-opacity="0.28"/>
</radialGradient>
<radialGradient id="paint6_radial_3765_35257" cx="0" cy="0" r="1" gradientTransform="matrix(13.501 1.77652 -1.27627 9.2012 92.3735 238.115)" gradientUnits="userSpaceOnUse">
<stop stop-color="#88B4E6"/>
<stop offset="1" stop-color="#88B4E6" stop-opacity="0.28"/>
</radialGradient>
<radialGradient id="paint7_radial_3765_35257" cx="0" cy="0" r="1" gradientTransform="matrix(13.6712 1.70945 -1.22187 9.61658 172.767 238.02)" gradientUnits="userSpaceOnUse">
<stop stop-color="#88B4E6"/>
<stop offset="1" stop-color="#88B4E6" stop-opacity="0.28"/>
</radialGradient>
<radialGradient id="paint8_radial_3765_35257" cx="0" cy="0" r="1" gradientUnits="userSpaceOnUse" gradientTransform="translate(132.719 90.727) scale(37.3737 52.0055)">
<stop stop-color="#B0D7F7"/>
<stop offset="0.6198" stop-color="#94BCE8"/>
<stop offset="0.8698" stop-color="#94BCE8" stop-opacity="0.51"/>
<stop offset="1" stop-color="#94BCE8" stop-opacity="0.23"/>
</radialGradient>
<radialGradient id="paint9_radial_3765_35257" cx="0" cy="0" r="1" gradientUnits="userSpaceOnUse" gradientTransform="translate(113.939 107.058) scale(6.9365 7.86585)">
<stop stop-color="#FED082"/>
<stop offset="0.5365" stop-color="#FDA672"/>
<stop offset="1" stop-color="#FDA672" stop-opacity="0.23"/>
</radialGradient>
<radialGradient id="paint10_radial_3765_35257" cx="0" cy="0" r="1" gradientUnits="userSpaceOnUse" gradientTransform="translate(152.645 107.313) scale(7.45001 8.21146)">
<stop stop-color="#FED082"/>
<stop offset="0.5365" stop-color="#FDA672"/>
<stop offset="1" stop-color="#FDA672" stop-opacity="0.23"/>
</radialGradient>
<radialGradient id="paint11_radial_3765_35257" cx="0" cy="0" r="1" gradientUnits="userSpaceOnUse" gradientTransform="translate(132.949 127.808) scale(6.8157 5.41403)">
<stop stop-color="#FDA672"/>
<stop offset="1" stop-color="#FDA672" stop-opacity="0.23"/>
</radialGradient>
<radialGradient id="paint12_radial_3765_35257" cx="0" cy="0" r="1" gradientTransform="matrix(8.72212 -2.57679 1.5902 5.74388 115.061 241.5)" gradientUnits="userSpaceOnUse">
<stop stop-color="#A1D1F2"/>
<stop offset="1" stop-color="#A1D1F2" stop-opacity="0.28"/>
</radialGradient>
<radialGradient id="paint13_radial_3765_35257" cx="0" cy="0" r="1" gradientTransform="matrix(8.7286 -1.89439 1.26435 5.57398 152.182 240.882)" gradientUnits="userSpaceOnUse">
<stop stop-color="#A1D1F2"/>
<stop offset="1" stop-color="#A1D1F2" stop-opacity="0.28"/>
</radialGradient>
<clipPath id="clip0_3765_35257">
<rect width="266" height="266" fill="white"/>
</clipPath>
<clipPath id="clip1_3765_35257">
<rect width="526" height="265" fill="white" transform="translate(-130)"/>
</clipPath>
</defs>
</svg>
