<svg xmlns="http://www.w3.org/2000/svg" width="266" height="266" viewBox="0 0 266 266" fill="none">
<rect width="266" height="266" fill="#B43219"/>
<g transform="translate(27.5,18.5)">
<path d="M 206.87,5.3 C 196.16,15.02 182.79,20.28 169.08,26.01 C 160.01,29.91 148.37,34.71 135.87,40.04 C 124.12,45.17 117.21,52.19 116.19,65.07 C 115.29,77.03 114.21,83.99 101.72,90.28 C 97.78,92.39 94.23,92.87 90.07,95.73 C 94.82,86.82 96.61,76.59 96.07,66.53 C 94.89,45.27 83.42,28.99 66.13,25.91 C 63.41,20.88 59.13,17.79 52.91,14.92 C 53.87,18.31 55.19,22.97 54.98,26.78 C 50.72,29.01 43.68,33.69 41.78,38.9 C 38.92,46.92 33.81,52.96 29.92,58.66 C 29.13,59.84 29.88,62.85 30.33,64.45 C 31.18,67.57 34.19,67.87 35.74,68.41 C 37.29,68.95 37.64,69.67 39.75,69.46 C 42.31,69.21 43.77,67.61 44.73,65.41 C 46.72,61.71 50.91,58.36 55.45,58.41 C 64.78,58.51 69.21,50.45 67.49,42.84 C 67.28,41.88 67.01,40.93 66.66,39.99 C 76.41,43.68 80.31,53.73 79.74,61.12 C 78.88,72.74 70.98,80.36 65.76,83.11 C 74.06,73.15 76.82,63.89 72.71,50.16 C 70.93,54.72 68.63,57.82 65.42,59.89 C 66.18,65.07 61.21,70.77 57.49,74.96 C 48.91,84.61 42.11,95.89 44.45,109.99 C 44.88,112.59 45.62,115.13 46.68,116.22 L 49.15,115.13 C 48.31,104.01 57.12,92.17 73.41,92.22 L 77.42,92.12 C 66.06,94.99 54.47,103.29 55.15,117.71 L 55.21,117.76 C 47.71,120.39 41.32,122.51 31.82,124.18 C 25.71,124.97 23.79,132.79 26.68,137.13 C 29.24,140.13 30.96,152.07 32.56,156.49 C 33.04,157.89 35.12,158.48 36.12,159.37 C 40.38,163.34 45.18,166.31 51.4,168.37 C 53.58,166.78 52.22,157.86 50.41,155.68 C 48.76,154.91 46.39,154.71 45.91,155.72 C 44.91,157.27 42.89,156.19 42.41,154.69 C 42.11,153.73 42.41,152.23 42.11,151.06 C 37.85,148.32 36.82,143.73 36.35,138.09 C 36.61,135.18 39.18,133.97 42.11,134.41 C 47.53,134.85 52.98,134.95 58.82,134.95 C 67.72,135.15 74.98,131.81 77.76,121.8 C 78.68,129.91 74.91,137.48 66.13,138.7 C 74.81,145.71 86.91,147.26 98.82,147.84 C 104.31,148.12 109.83,149.06 113.22,151.31 C 113.11,145.49 115.29,139.08 119.36,135.23 C 115.71,142.01 116.19,151.78 120.08,160.08 C 122.78,166.01 126.72,171.32 133.08,176.68 C 138.24,181.18 140.61,186.41 138.14,192.06 C 134.72,200.22 131.12,206.98 125.11,212.91 C 122.64,215.38 121.22,219.31 120.64,223.5 C 125.86,223.71 131.09,223.39 135.18,222.02 C 136.04,219.78 134.12,213.81 138.99,212.81 C 139.95,212.61 140.29,212.31 140.43,211.04 C 142.22,202.73 147.12,193.92 152.16,186.91 C 153.71,184.47 153.71,180.49 152.16,178.95 C 146.11,172.11 145.87,165.08 149.22,159.01 C 153.01,152.23 155.39,148.49 154.91,140.97 C 153.81,128.91 144.9,114.78 126.82,111.91 C 118.46,110.92 112.77,108.96 105.41,104.92 C 101.41,103.93 97.92,106.92 95.93,109.62 C 96.54,103.01 102.49,99.71 108.37,97.01 C 119.73,92.07 125.28,81.08 128.4,67.71 C 131.65,55.21 140.78,46.4 155.11,40.46 C 150.11,44.82 144.86,48.11 141.61,53.24 C 150.11,49.66 159.8,46.01 172.43,41.92 C 188.62,36.28 206.87,25.11 206.87,5.3 Z" fill="#FEFEFE"/>
<path d="M 125.32,88.7 C 127.07,86.75 128.43,84.21 129.49,81.31 C 136.21,77.57 144.22,75.26 154.22,74.41 C 165.06,73.41 176.06,71.86 186.39,68.52 C 181.07,80.46 171.01,87.12 154.73,88.18 C 146.11,88.77 136.91,88.23 125.32,88.7 Z" fill="#FEFEFE"/>
<path d="M 111.17,100.41 C 114.86,98.91 116.81,95.72 121.01,94.91 C 132.01,92.61 137.72,94.31 146.11,95.31 C 151.11,95.9 156.11,95.9 159.87,95.31 C 154.87,102.07 146.11,106.01 136.71,105.01 C 128.31,104.22 122.17,101.21 111.17,100.41 Z" fill="#FEFEFE"/>
<path d="M 151.92,120.11 C 155.91,117.81 158.78,116.81 164.43,116.91 C 175.26,117.45 184.66,125.07 188.11,139.92 C 189.76,147.19 190.79,158.91 202.65,163.94 C 193.9,166.31 187.71,160.95 183.78,151.71 C 183.5,161.95 190.86,176.36 207.81,181.72 C 201.05,186.51 191.12,186.41 184.97,182.16 C 178.75,177.81 174.89,172.11 172.42,163.94 C 170.43,171.01 172.73,179.12 177.46,185.19 C 167.71,181.18 161.35,169.41 162.38,161.95 C 162.86,154.13 167.65,146.92 162.86,133.19 C 162.38,132.01 161.84,131.21 160.88,130.22 C 166.66,132.18 171.01,138.11 171.42,147.02 C 174.48,137.07 168.19,125.23 156.05,125.82 C 154.91,123.61 153.61,121.75 151.92,120.11 Z" fill="#FEFEFE"/>
<path d="M 108.31,50.81 C 106.76,40.01 100.47,29.01 85.11,26.01 L 93.44,25.22 C 85.11,18.79 77.76,17.18 64.71,17.67 C 65.73,19.43 66.41,20.42 67.73,21.41 C 79.09,22.91 88.06,30.47 94.61,41.01 C 101.04,51.25 104.06,70.92 97.64,85.62 C 105.13,81.08 108.21,71.86 107.53,63.94 C 106.92,57.23 103.63,50.76 99.98,45.22 C 103.63,46.01 106.49,48.21 108.31,50.81 Z" fill="#FEFEFE"/>
<path d="M 44.53,17.72 C 47.12,18.71 50.11,20.08 51.11,22.42 C 51.61,23.78 50.51,25.38 46.58,26.93 L 44.53,17.72 Z" fill="#FEFEFE"/>
<path d="M 7.91,140.43 C 11.13,138.7 14.92,134.31 16.58,131.01 C 16.65,128.61 14.99,127.01 12.62,126.02 C 11.23,125.23 11.61,123.12 13.56,122.41 C 14.35,122.07 14.48,121.77 14.42,120.4 C 14.21,117.21 16.71,112.92 19.64,108.11 C 21.72,106.01 23.78,105.91 26.24,107.51 C 30.21,110.31 34.53,114.78 38.12,117.92 L 41.27,117.31 C 38.64,112.01 38.78,106.41 39.63,101.01 C 34.81,99.46 30.91,97.86 26.72,95.8 C 22.16,94.01 16.61,96.17 14.52,101.11 C 11.66,107.82 7.73,113.81 3.84,119.41 C 2.98,120.69 3.12,121.09 3.12,122.41 C 3.09,128.82 3.36,135.23 6.51,140.63 L 7.91,140.43 Z" fill="#FEFEFE"/>
<path d="M 120.71,172.11 C 116.74,167.66 115.38,163.91 113.83,157.98 C 109.01,155.21 105.39,153.91 99.03,153.7 C 98.72,161.71 103.21,168.91 109.77,176.11 C 112.53,179.2 112.43,182.95 108.64,186.91 C 100.91,195.02 90.11,201.43 86.45,214.31 C 89.81,215.1 96.03,214.11 99.72,212.81 C 100.13,210.75 98.61,205.72 102.73,205.01 C 103.69,204.81 103.93,204.71 104.51,203.53 C 108.81,196.92 115.06,190.99 122.96,185.63 C 125.72,183.67 125.86,179.92 123.88,177.06 C 122.85,175.51 122.71,173.75 122.37,171.8 C 121.73,171.46 121.22,171.01 120.71,170.42" fill="#FEFEFE"/>
<path d="M 51.57,38.5 C 54.1,38.5 54.71,40.36 54.71,41.52 C 54.71,43.58 53.32,44.74 51.57,44.74 C 49.72,44.74 48.53,43.38 48.53,41.72 C 48.53,40.26 49.62,38.5 51.57,38.5 Z" fill="#B43219"/>
<path d="M 132.29,72.94 C 133.61,67.01 133.07,63.11 144.11,57.95 C 156.18,52.72 170.74,49.22 177.1,47.27 C 186.32,44.72 194.31,40.98 202.71,36.89 C 198.78,54.18 186.39,62.04 169.11,65.74 C 157.21,68.49 144.18,69.38 132.29,72.94 Z" fill="#FEFEFE"/>
</g>
</svg>