<svg xmlns="http://www.w3.org/2000/svg" width="250" height="250" fill="none" viewBox="0 0 250 250">
<!-- SVG created with Arrow, by QuiverAI (https://quiver.ai) -->
  <path d="m172.1 75.88c2.92 2.8 5.02 8.33 4.92 12.83-0.18 8.45-4.93 13.58-11.98 17-1.29 0.65-0.53-0.64-0.53-0.64 3.23-4.1 3.55-9.18 1.27-12.43-0.94-1.37-1.27 0.5-1.27 0.5-0.7 2.64-3.29 4.45-4.23 4.18-1.13-0.34 1.66-3.21 1.06-7.54s-3.7-8.05-5.63-9.62c-1.07-0.88-0.87 0.45-0.87 0.45-0.2 4.5-3.4 9.1-5.19 10.51-1.4 1.14-1.47-0.7-1.47-0.7-0.2-1.44-0.4-2.25-0.8-1.91-5.56 4.66-2.42 13.2-0.14 15.21 0.8 0.74-0.2 0.61-0.2 0.61-5.95-2.08-11.17-7.74-11.04-15.02 0.1-6.4 6.89-13.34 6.89-17.2 0-1.28 0.2-3.7 0.2-3.7 2.86 0.81 4.26 4.3 3.59 7-0.4 1.57 1 3.31 2.47 2.3 1.93-1.27 1-6 0.6-9.1-1-7.55 3.79-14.53 9.04-16.81 0.54-0.24 0.07 0.87 0.07 0.87-3.06 5.79 0 11.72 5.72 18.06s5.52 10.2 5.79 13.49c0.2 2.25 1.33 1.51 1.33 1.51 3.2-2.52 1.8-8.92 0-10.7-0.53-0.5 0.4 0.85 0.4 0.85z" fill="url(#paint0_linear_126_51)"/>
  <path d="m167.1 59.41c2.13 2.46 3.13 4.3 3.13 6.72s-2.07 4.3-3.13 4.8c-0.8 0.4-0.67-0.97-0.67-0.97 0-2.55-0.66-4.13 0.07-7.92 0.27-1.28 0.2-3.33 0.6-2.63z" fill="url(#paint1_linear_126_51)"/>
  <path d="m139.7 106.3-24.63-1.14c-1.27-4.13-4.86-9.43-9.12-12.99-1.87-3.29-2.07-6.88-5.66-10.94-1.27-1.44-1.47-2.75-0.33-4.25 1.6-2.25 2.2-3.86 4-2.59 2.2 1.51 3.8 2.49 6 2.22 2.34-0.3 2.74-1.41 2.74-3.52 0-1.21 1.27-1.95 1.27-4.1 0-1.27 2.93-0.64 4.53-1.11 1.14-0.33 0.47-5.3 1.34-10.3 0.46-2.75 1.86-6.48 2.86-6.28 2.67 0.5 4.47-4.7 2.27-5.71-0.94-0.43-0.47-1.81-0.6-2.68-0.47-2.92-2.87-3.66-4.2-3.52-1.14 0.13-1.94-2.52-4.74-3.6-1.4-0.57-3.67-0.2-5.67-1-2.6-1.08-3.6-1.82-6.67-1.82-5.08 0-6.95 2.08-10.94 5.61-2.4 1.14-2.8 3.32-2.8 4.7 0 1.14-2.2 3.02-2.2 5.67 0 0.67 0.07 1.85-0.93 1.98-1.74 0.27-3.14 2.25-2.54 3.89 0.27 0.74 0.47 0.91 0.07 1.38-0.87 1.01 0.27 2.88 1.73 3.59 0.54 0.3-1.6 4.63-3.26 5.64-11.06 3.76-20.65 10.71-23.85 24.42-2.86 11.93-2.86 22.61-2.86 36.32 0 0.54 0.47 0.91 1 1.04 8.46 2.05 14.45 5.67 22.78 7.48 0 0 0.4 0.44-0.33 0.3l-25.78-4.2c-0.87-0.16-1.33 0.44-1.4 1.38-0.27 2.99-0.87 4.87-1.93 7.79-3.4 9.68-1.07 18.89 3.86 25.13 3 3.86 4.27 8.86 6.67 18.54 0.26 1.07 0.73 0.47 1.6 0.27 21.17-5.17 34.43-19.31 46.42-45.52l-18.85-2.35-0.4-4.13 3.4-8.02c-8.8-8.64-11.73-11.06-19.59-25.3 3.13 1.01 5.8 2.62 6.86 5.54 3.13 8.84 17.39 19.76 22.28 23.66 1.33 1.07 4.33 0.67 5.86 0.5 11.06-1.2 25.32-6.1 33.21-7.81 4.13 0.67 10.09 1.21 14.91 1.51 2.07 0.13 10.7-6.3 12.97-8.28 2.33-2.05 0-3.79-2.2-2.65-3.33 1.64-5.9 3.69-10.5 3.69-2.66 0-5.86-1.04-5.86-2.45 0-0.74 4.66-1.14 6.79-3.22 1.47-1.37 1.27-2.41 0.27-2.04-2.53 0.87-11.06 0.6-14.79 2.34-2.06 0.94-3.26 2.52-5.19 2.38-9.46-0.67-16.86-0.5-30.78 1.28-3.13-7.94-6.43-13.88-12.02-18.88-1.27-8.52-4.4-15.67-12.09-18.68 4.27-0.54 12.59 4.26 13.53 14.21 0.2 2.22 0.93 4 2.67 5.41 5.02 4.06 8.22 10 10.22 11.84l0.2 0.94c0.2 0.94 0.46 1.07 1.4 0.94l24.31-0.24c2.06 0 3.76-1.54 4.96-2.54 0.8-0.67 0.33 0.07-0.27 0.27z" fill="url(#paint2_linear_126_51)"/>
  <path d="m112.7 138.4 14.26 1.71c8.13 1.01 10.13 8.59 8.79 15.03l-9.46 45.77c-0.47 2.25 0.8 2.92 2.8 4.09 5.06 2.92 9.62 4.9 15.08 6.41 3.33 0 4.53 1.21 3.86 3.63-0.33 1.21-1.26 1.07-2.33 1.01l-14.59-0.6c-3.96-0.41-8.72 0-13.21 0.2-3.8 0.16-5.2-3.2-4.6-5.65 0.87-3.49 2-4.19 2.27-11.4 0.2-7.52-1.47-18.44-2.27-22.37-1-5 1.54-10.31 4.14-15.44l-20.82 6.14c8.13-9.95 11.42-18.73 16.08-28.53z" fill="url(#paint3_linear_126_51)"/>
  <path d="m68.13 186.8c9.46-3.06 17.05-7.86 22.51-14.14l6.66 29.05c1.4 6.33-2.86 13.99-10.19 13.99h-3.4l-45.59-5c-3.47-0.41-5.87 0.2-9.07 1l-20.01 4.28c-1.73 0.4-2.73-0.88-2.73-2.59 0-0.87 1.4-1.28 2.4-2.29 2.73-2.79 7.86-5.84 10.46-8.99 3.6-4.4 4.93-7.62 8.06-7.62 4.63 0 5.69 3.39 7.49 4.7 1.33 0.94 8.19-0.3 10.06-0.6 8.13-1.38 10.96-3.49 17.35-3.29 5.26 0.13 8.13 2.11 12.53 3.02 1.26 0.27 0.26-1.11 0.26-1.11l-6.79-10.41z" fill="url(#paint4_linear_126_51)"/>
  <path d="m156.8 135.9c-2.73 0-3.13 2.42-2.13 5.27l5.72 12.67 9.33 7.55-6.39 28.73c-0.2 0.87 0.33 1.41 1.33 1.41l3.73 0.47 0.54 18.08-4 2.92c-1.4 1.01-1.94 3.03 0 3.03h8.53c1.33 0 1.66-1.08 1.73-2.22l2.13-19.66h0.87l7.93 15.73-1.67 3.19c-0.93 1.68-0.67 2.96 0.67 2.96h2.06l5.53-4.87c0.73-0.67 0.07-3.09-0.33-4.3l-4.66-14.19 3.99-1.07c0.94-0.27 0.34-2.52-0.13-4.43-2.47-8.64-4.4-14.79-4.4-23.08 0-5-2.6-7.42-7.13-8.5-4.33-1.07-11.46-5.4-13.86-7.21l-5.72-10.34c-0.94-1.6-2-2.14-3.67-2.14z" fill="url(#paint5_linear_126_51)"/>
  <path d="m182.2 134c-6.93 0-9.59 6.5-9.59 10.23 0 5.93 4.59 9.19 9.39 9.19 6.12 0 9.19-5.6 8.99-9.8-0.26-5.67-4.59-9.62-8.79-9.62z" fill="url(#paint6_linear_126_51)"/>
  <path d="m217.1 140.1c-6.93 0-9.13 7.62-9.13 10.24 0 6.27 4.8 10.4 9.33 10.4 6.92 0 10.06-6.38 10.06-10.4 0-6.41-5.66-10.24-10.26-10.24z" fill="url(#paint7_linear_126_51)"/>
  <path d="m196.4 158.1c-2.47 0-3.53 2.01-2.73 4.8l5.19 15.01c1.4 3.79 5.2 4.53 7.2 3.19l5.26-2.52 1.8 14.31-13.39 10.98c-3.8 3.18-3.4 12.18 2.93 12.18h39.65c2.47 0 1.93-2.75 0.4-3.73l-7.53-6.37c-1.33-1.01-3.4-0.47-4.53 1.1l-8.19-0.5 0.2-1.14 8.12-5c4.07-2.59 4.87-8.19 3.4-12.25l-5.72-18.99c-1.6-4.12-4.73-6.74-8.4-6.74-3.26 0-5.13 1.37-7.8 3.89l-7.33 4.6-4.86-10.91c-0.74-1.41-2.07-1.91-3.67-1.91z" fill="url(#paint8_linear_126_51)"/>
  <defs>
    <linearGradient id="paint0_linear_126_51" x1="136" x2="177" y1="78.96" y2="78.96" gradientUnits="userSpaceOnUse">
      <stop stop-color="#C60202" offset="0"/>
      <stop stop-color="#BA0000" offset="1"/>
    </linearGradient>
    <linearGradient id="paint1_linear_126_51" x1="166.1" x2="170.2" y1="65.08" y2="65.08" gradientUnits="userSpaceOnUse">
      <stop stop-color="#C60202" offset="0"/>
      <stop stop-color="#BA0000" offset="1"/>
    </linearGradient>
    <linearGradient id="paint2_linear_126_51" x1="51.2" x2="169" y1="79.96" y2="79.96" gradientUnits="userSpaceOnUse">
      <stop stop-color="#C60202" offset="0"/>
      <stop stop-color="#BA0000" offset="1"/>
    </linearGradient>
    <linearGradient id="paint3_linear_126_51" x1="96.64" x2="148.4" y1="177" y2="177" gradientUnits="userSpaceOnUse">
      <stop stop-color="#C60202" offset="0"/>
      <stop stop-color="#BA0000" offset="1"/>
    </linearGradient>
    <linearGradient id="paint4_linear_126_51" x1="6.308" x2="97.64" y1="194.6" y2="194.6" gradientUnits="userSpaceOnUse">
      <stop stop-color="#C60202" offset="0"/>
      <stop stop-color="#BA0000" offset="1"/>
    </linearGradient>
    <linearGradient id="paint5_linear_126_51" x1="154" x2="192.8" y1="176" y2="176" gradientUnits="userSpaceOnUse">
      <stop stop-color="#C60202" offset="0"/>
      <stop stop-color="#BA0000" offset="1"/>
    </linearGradient>
    <linearGradient id="paint6_linear_126_51" x1="172.6" x2="191" y1="143.7" y2="143.7" gradientUnits="userSpaceOnUse">
      <stop stop-color="#C60202" offset="0"/>
      <stop stop-color="#BA0000" offset="1"/>
    </linearGradient>
    <linearGradient id="paint7_linear_126_51" x1="208" x2="227.4" y1="150.4" y2="150.4" gradientUnits="userSpaceOnUse">
      <stop stop-color="#C60202" offset="0"/>
      <stop stop-color="#BA0000" offset="1"/>
    </linearGradient>
    <linearGradient id="paint8_linear_126_51" x1="193.2" x2="243.7" y1="187.1" y2="187.1" gradientUnits="userSpaceOnUse">
      <stop stop-color="#C60202" offset="0"/>
      <stop stop-color="#BA0000" offset="1"/>
    </linearGradient>
  </defs>
</svg>