<svg xmlns="http://www.w3.org/2000/svg" width="266" height="266" viewBox="0 0 266 266" fill="none">
<rect width="266" height="266" fill="#FFFFFF"/>
<g transform="translate(26.75,26.75) scale(0.85)">
<path d="M 238.31,29.74 C 233.26,26.82 211.97,20.08 178.02,18.91 C 152.02,17.98 132.38,20.61 120.06,25.14 L 110.09,29.28 C 96.58,15.83 82.92,5.27 62.32,5.84 L 58.91,5.92 C 66.85,21.79 68.07,32.76 65.06,55.31 C 71.26,49.97 76.69,47.18 85.32,43.67 C 66.89,57.43 50.22,76.18 45.34,102.49 C 60.67,92.99 76.28,87.49 100.12,85.68 C 79.26,91.31 58.26,98.76 41.62,111.28 C 24.98,123.81 14.07,136.06 9.61,144.38 C 19.32,142.34 29.92,133.91 43.18,129.07 C 57.37,123.57 68.18,120.74 83.46,120.31 C 92.78,107.58 102.02,99.18 115.45,89.52 C 109.11,78.17 107.66,68.03 108.66,54.39 C 109.92,67.18 113.14,75.88 121.01,85.68 C 115.41,72.76 115.18,61.91 118.98,46.69 C 118.61,60.81 121.19,70.75 129.01,81.89 C 124.93,68.11 124.91,57.04 130.42,40.66 C 127.92,50.12 127.86,57.91 131.16,67.92 L 154.16,62.14 C 159.64,58.11 164.01,51.98 169.15,49.94 C 183.11,44.94 208.88,38.78 231.22,36.65 C 234.21,36.36 234.18,37.41 233.16,40.28 C 230.19,47.11 222.67,55.71 214.71,60.01 C 206.81,53.15 188.06,53.66 178.61,56.49 C 174.18,58.49 171.03,61.42 167.18,64.69 C 176.91,60.66 183.88,60.15 198.78,63.22 C 204.92,64.69 207.22,65.74 206.81,68.63 C 206.05,74.82 187.28,87.78 165.14,97.93 C 138.74,108.79 107.21,125.31 106.73,155.72 C 106.58,165.41 112.11,174.09 118.28,180.07 C 115.22,174.38 113.92,170.23 113.64,162.9 C 123.98,184.86 147.95,196.26 182.42,199.97 C 170.91,202.13 151.87,201.96 137.28,199.36 C 98.71,193.77 71.26,172.61 71.91,142.12 C 72.06,136.99 72.73,133.51 73.66,127.61 C 64.77,126.96 56.29,128.19 46.1,130.71 C 50.43,153.94 62.11,171.69 83.68,186.69 C 87.93,199.68 93.88,208.98 103.39,213.91 C 104.21,207.71 106.69,203.71 110.31,200.31 C 118.13,202.87 124.11,204.91 133.55,206.18 C 139.36,212.21 144.09,215.11 151.41,217.15 C 149.81,213.08 149.41,211.49 149.81,208.12 H 169.09 C 179.44,227.09 192.22,241.08 213.78,244.16 L 213.72,244.01 C 205.51,231.98 201.73,220.18 199.66,203.56 C 206.11,188.06 212.27,176.06 220.61,166.37 L 227.24,164.47 L 235.16,143.21 C 206.26,150.87 187.91,166.74 170.19,189.26 C 161.92,187.41 152.09,183.91 149.38,180.91 C 148.79,176.76 150.07,174.61 151.98,170.59 C 148.21,169.71 136.17,171.75 132.32,170.01 C 123.71,164.09 118.28,155.23 119.12,144.38 C 120.11,133.76 128.42,125.72 136.52,120.02 V 124.41 C 145.72,126.88 153.76,127.76 162.07,133.46 C 171.71,139.59 178.82,149.58 187.91,152.5 C 192.79,134.19 183.41,114.24 172.32,102.34 C 188.43,93.88 206.29,82.81 212.21,71.15 L 212.81,66.52 C 224.85,59.94 232.61,50.26 237.34,41.46 C 239.82,36.23 240.92,31.78 238.31,29.74 Z M 190.24,37.2 C 187.43,37.2 186.92,34.63 186.92,33.61 C 186.92,31.45 188.43,30.21 190.06,30.21 C 192.71,30.21 193.41,32.18 193.41,33.52 C 193.41,35.35 192.22,37.2 190.24,37.2 Z" fill="black"/>
</g>
</svg>